<svg width="16" height="16" viewBox="0 0 16 16" fill="none" xmlns="http://www.w3.org/2000/svg">
<g clip-path="url(#clip0_312_10855)">
<path d="M7.0856 13.6627L8.08177 11.1708L8.20169 11.1057L7.20552 13.5976L7.0856 13.6627ZM7.44536 13.4673L8.44152 10.9755L8.92119 10.715L7.92503 13.2069L7.44536 13.4673ZM8.04495 13.1418L9.04111 10.6499L9.16103 10.5848L8.16486 13.0767L8.04495 13.1418ZM7.52136 14.428C7.43602 14.5162 7.35338 14.582 7.27343 14.6255C7.19882 14.666 7.15509 14.671 7.14224 14.6405C7.13053 14.6072 7.14605 14.537 7.18883 14.43C7.19671 14.4103 7.21042 14.3786 7.22997 14.3349L7.34051 14.0897L7.18861 14.1722L7.22576 14.0793L7.38165 13.9946L7.46962 13.7981L7.59399 13.714L7.60998 13.7053L7.6066 13.7138C7.59789 13.7251 7.59052 13.7357 7.58448 13.7456C7.57577 13.757 7.5686 13.7697 7.56298 13.7837L7.48958 13.936L7.71343 13.8145L7.67628 13.9074L7.44444 14.0333L7.33452 14.2848C7.31497 14.3284 7.30295 14.3559 7.29844 14.3672C7.26467 14.4516 7.25093 14.5043 7.2572 14.5251C7.2646 14.5432 7.28828 14.5413 7.32825 14.5196C7.35757 14.5037 7.3878 14.4829 7.41895 14.4572C7.44744 14.4329 7.48273 14.3994 7.52484 14.3567L7.52136 14.428ZM8.40501 12.9463L9.40118 10.4544L9.5211 10.3893L8.52493 12.8812L8.40501 12.9463ZM8.76477 12.751L9.76093 10.2591L9.88085 10.194L8.88469 12.6858L8.76477 12.751ZM9.12452 12.5556L10.1207 10.0638L10.6004 9.80333L9.60419 12.2952L9.12452 12.5556ZM8.94766 13.1311C9.01961 13.0921 9.06887 13.0863 9.09545 13.1137L9.01372 13.2242L9.00297 13.2433L8.99435 13.2414C8.99619 13.2315 8.9969 13.2245 8.99649 13.2204C8.99453 13.2148 8.98858 13.2114 8.97864 13.2102C8.96141 13.2063 8.93547 13.2138 8.90083 13.2326C8.86618 13.2514 8.82893 13.2794 8.78908 13.3164C8.75034 13.3507 8.71377 13.3926 8.67936 13.4421C8.64228 13.4931 8.61249 13.5468 8.58998 13.6031L8.43802 13.9832L8.33009 14.0418L8.61712 13.3238L8.72905 13.2631L8.67271 13.3962C8.70937 13.341 8.75332 13.2885 8.80455 13.2386C8.85465 13.1915 8.90235 13.1557 8.94766 13.1311ZM9.72443 12.2299L10.7206 9.73805L10.8405 9.67294L9.84434 12.1648L9.72443 12.2299ZM10.0842 12.0346L11.0803 9.54272L11.2003 9.47761L10.2041 11.9695L10.0842 12.0346ZM10.324 11.9044L11.3202 9.4125L11.56 9.28227L10.5639 11.7741L10.324 11.9044ZM10.1312 12.4885C10.2271 12.4365 10.2897 12.4234 10.3189 12.4494C10.3482 12.4754 10.3369 12.5532 10.2851 12.6827L10.1332 13.0628L10.0173 13.1258L10.0612 13.016C9.98741 13.1221 9.89325 13.2063 9.77866 13.2685C9.70404 13.309 9.65273 13.3226 9.62473 13.3091C9.59672 13.2957 9.59454 13.2594 9.61818 13.2003C9.63844 13.1496 9.67187 13.0972 9.71848 13.0433C9.76243 12.9908 9.81555 12.9388 9.87786 12.8873C9.93637 12.8401 9.9976 12.7991 10.0616 12.7644C10.1175 12.734 10.167 12.7094 10.2101 12.6904C10.2363 12.6144 10.2388 12.569 10.2177 12.554C10.1965 12.539 10.1526 12.5496 10.086 12.5858C10.0514 12.6046 10.0166 12.629 9.98164 12.659C9.94404 12.6904 9.90684 12.7261 9.87007 12.7659L9.8468 12.7223C9.93778 12.62 10.0326 12.5421 10.1312 12.4885ZM9.82442 13.1776C9.89903 13.137 9.96723 13.0813 10.029 13.0103C10.0896 12.9421 10.1382 12.865 10.1746 12.7791C10.1327 12.7952 10.0864 12.8171 10.0358 12.8445C9.96117 12.8851 9.89558 12.9317 9.83902 12.9844C9.78626 13.0329 9.74918 13.0839 9.72779 13.1374C9.69627 13.2163 9.72848 13.2296 9.82442 13.1776ZM11.0438 11.5135L12.04 9.02166L12.1599 8.95655L11.1638 11.4484L11.0438 11.5135ZM11.6434 11.188L12.6396 8.69611L12.7595 8.631L11.7633 11.1229L11.6434 11.188ZM11.8833 11.0577L12.8794 8.56589L13.1193 8.43567L12.1231 10.9275L11.8833 11.0577ZM11.21 12.4914C11.1434 12.5276 11.0909 12.5439 11.0527 12.5404C11.0156 12.5341 10.9936 12.5108 10.9868 12.4704C10.98 12.43 10.9912 12.3732 11.0205 12.3C11.0486 12.2296 11.0886 12.1583 11.1404 12.086C11.1923 12.0138 11.2503 11.9471 11.3144 11.8858C11.3774 11.8273 11.4422 11.78 11.5088 11.7438C11.5621 11.7149 11.6069 11.6994 11.6432 11.6973C11.6769 11.6967 11.6999 11.7095 11.7123 11.7359L11.6157 11.8445L11.6043 11.8573L11.5997 11.8532C11.6031 11.8448 11.6038 11.8378 11.6018 11.8322C11.6014 11.828 11.5981 11.8232 11.592 11.8177C11.5785 11.8096 11.5615 11.8078 11.5409 11.8124C11.5187 11.8156 11.4917 11.8259 11.4597 11.8433C11.4197 11.865 11.3793 11.8958 11.3383 11.9356C11.2946 11.977 11.255 12.0238 11.2195 12.0762C11.1824 12.1272 11.1532 12.1794 11.1318 12.2329C11.1104 12.2864 11.1014 12.3299 11.1047 12.3634C11.1091 12.394 11.1242 12.4112 11.1498 12.4149C11.177 12.42 11.2119 12.411 11.2545 12.3878C11.3238 12.3502 11.3956 12.2881 11.4698 12.2015L11.4994 12.245C11.4024 12.3572 11.3059 12.4393 11.21 12.4914ZM12.3632 10.7971L13.3594 8.30528L13.4793 8.24017L12.4832 10.732L12.3632 10.7971ZM12.723 10.6018L13.7192 8.10995L14.1988 7.84951L13.2027 10.3414L12.723 10.6018ZM13.3226 10.2763L14.3188 7.7844L14.4387 7.71929L13.4425 10.2111L13.3226 10.2763ZM12.799 11.5625C12.7137 11.6507 12.631 11.7165 12.5511 11.7599C12.4765 11.8004 12.4327 11.8054 12.4199 11.7749C12.4082 11.7416 12.4237 11.6715 12.4665 11.5645C12.4744 11.5448 12.4881 11.5131 12.5076 11.4694L12.6182 11.2242L12.4663 11.3067L12.5034 11.2137L12.6593 11.1291L12.7473 10.9325L12.8716 10.8485L12.8876 10.8398L12.8842 10.8482C12.8755 10.8596 12.8682 10.8702 12.8621 10.8801C12.8534 10.8914 12.8463 10.9041 12.8406 10.9182L12.7672 11.0705L12.9911 10.949L12.9539 11.0419L12.7221 11.1678L12.6122 11.4192C12.5926 11.4629 12.5806 11.4904 12.5761 11.5016C12.5423 11.5861 12.5286 11.6388 12.5348 11.6596C12.5422 11.6776 12.5659 11.6758 12.6059 11.6541C12.6352 11.6382 12.6654 11.6174 12.6966 11.5916C12.7251 11.5673 12.7604 11.5339 12.8025 11.4912L12.799 11.5625ZM13.6827 10.0808L14.6788 7.5889L14.7987 7.52379L13.8026 10.0156L13.6827 10.0808ZM14.1623 9.82031L15.1585 7.32846L15.6382 7.06802L14.642 9.55987L14.1623 9.82031ZM14.7619 9.49476L15.7581 7.00291L15.878 6.9378L14.8818 9.42965L14.7619 9.49476ZM13.7985 11.0826C13.7372 11.1159 13.6888 11.1301 13.6532 11.1251C13.6203 11.1188 13.6018 11.0947 13.5976 11.0528C13.5908 11.0124 13.6021 10.9556 13.6313 10.8824C13.6606 10.8092 13.7011 10.7365 13.753 10.6642C13.8021 10.5935 13.8556 10.5303 13.9132 10.4747C13.9747 10.4149 14.0361 10.3683 14.0974 10.3351C14.1587 10.3018 14.2052 10.2897 14.237 10.2989C14.2726 10.3038 14.2925 10.3272 14.2966 10.3691C14.3007 10.4109 14.2882 10.4684 14.2589 10.5417C14.2296 10.6149 14.1904 10.6869 14.1413 10.7576C14.0921 10.8284 14.0374 10.8923 13.977 10.9493C13.9193 11.0049 13.8598 11.0493 13.7985 11.0826ZM13.8357 10.9897C13.873 10.9694 13.9127 10.938 13.9548 10.8953C13.9931 10.8568 14.0301 10.8114 14.0656 10.759C14.0996 10.7053 14.1273 10.6517 14.1487 10.5982C14.1813 10.5165 14.1891 10.4605 14.1721 10.4301C14.155 10.3997 14.1172 10.4004 14.0586 10.4322C13.9999 10.464 13.9418 10.5154 13.8843 10.5863C13.8267 10.6573 13.7816 10.7336 13.7489 10.8152C13.7276 10.8687 13.7159 10.9137 13.7138 10.95C13.7156 10.9821 13.7266 11.0015 13.747 11.0081C13.7661 11.0175 13.7957 11.0114 13.8357 10.9897Z" fill="white"/>
<g clip-path="url(#clip1_312_10855)">
<path d="M0.422201 7.36452L1.43001 4.87735L1.52841 4.97188L0.520609 7.45905L0.422201 7.36452ZM0.717425 7.64811L1.72523 5.16093L1.82364 5.25546L0.815834 7.74263L0.717425 7.64811ZM1.20947 8.12075L2.21727 5.63357L2.41409 5.82263L1.40628 8.3098L1.20947 8.12075ZM0.431397 9.26495C0.398595 9.23344 0.371964 9.1942 0.351507 9.14722C0.331049 9.10024 0.317812 9.05043 0.311795 8.9978L0.241414 9.05903L0.185649 9.00547L0.60756 7.96423L0.709249 8.06191L0.705832 8.07034C0.698042 8.07457 0.691915 8.07844 0.687451 8.08196C0.681848 8.08829 0.67563 8.09989 0.668797 8.11675L0.520189 8.4835C0.555813 8.46307 0.593488 8.45631 0.633214 8.46323C0.67294 8.47016 0.708111 8.48833 0.738727 8.51774C0.808706 8.58496 0.851944 8.66944 0.868442 8.77118C0.8838 8.87573 0.867566 8.98702 0.819738 9.10505C0.786714 9.18655 0.74731 9.24631 0.701528 9.28432C0.655745 9.32233 0.608572 9.33754 0.560008 9.32993C0.513631 9.32442 0.470761 9.30276 0.431397 9.26495ZM0.462552 9.15433C0.506289 9.19634 0.551482 9.20852 0.598131 9.19086C0.643642 9.17601 0.685756 9.12081 0.724474 9.02526C0.762053 8.93252 0.776832 8.85106 0.76881 8.78089C0.759739 8.7058 0.732242 8.6462 0.686319 8.60209C0.640395 8.55798 0.5924 8.54896 0.542335 8.57505C0.493408 8.59833 0.451863 8.65213 0.4177 8.73644C0.344819 8.9163 0.35977 9.0556 0.462552 9.15433ZM1.50495 8.40458L2.51275 5.9174L2.61116 6.01193L1.60336 8.4991L1.50495 8.40458ZM1.70176 8.59363L2.70957 6.10646L2.90638 6.29552L1.89858 8.78269L1.70176 8.59363ZM2.0954 8.97174L3.1032 6.48457L3.20161 6.5791L2.1938 9.06627L2.0954 8.97174ZM1.5207 10.3113C1.4376 10.2315 1.38509 10.1361 1.36318 10.0253C1.33907 9.91234 1.35093 9.79685 1.39876 9.67881C1.43064 9.60012 1.47057 9.54282 1.51854 9.50691C1.56318 9.47171 1.61088 9.45896 1.66163 9.46867C1.71133 9.47347 1.76024 9.49897 1.80835 9.54519C1.87614 9.61031 1.91943 9.69092 1.9382 9.78704C1.95584 9.88597 1.94188 9.99164 1.89633 10.1041C1.89178 10.1153 1.88494 10.1322 1.87583 10.1546L1.47892 9.77338C1.44581 9.8626 1.43763 9.9465 1.4544 10.0251C1.47117 10.1037 1.50689 10.1692 1.56156 10.2217C1.62061 10.2784 1.67954 10.2979 1.73835 10.2803L1.76193 10.3908C1.68421 10.4176 1.6038 10.3911 1.5207 10.3113ZM1.82314 9.98104C1.85047 9.9136 1.85898 9.84759 1.84868 9.78304C1.83838 9.71849 1.81137 9.66521 1.76763 9.62319C1.72827 9.58538 1.68587 9.57004 1.64045 9.57717C1.59503 9.58429 1.55424 9.62124 1.51807 9.68801L1.82314 9.98104ZM2.58769 9.44463L3.5955 6.95746L3.79231 7.14651L2.78451 9.63368L2.58769 9.44463ZM2.88292 9.72821L3.89072 7.24104L4.08754 7.4301L3.07973 9.91727L2.88292 9.72821ZM3.27655 10.1063L4.28436 7.61915L4.48117 7.80821L3.47337 10.2954L3.27655 10.1063ZM3.67044 10.4847L4.67824 7.99751L4.77665 8.09204L3.76885 10.5792L3.67044 10.4847ZM3.96566 10.7683L4.97347 8.2811L5.07188 8.37562L4.06407 10.8628L3.96566 10.7683ZM4.16248 10.9573L5.17029 8.47015L5.3671 8.65921L4.3593 11.1464L4.16248 10.9573ZM3.95744 11.6095C4.03617 11.6852 4.08549 11.7696 4.1054 11.8629C4.12532 11.9562 4.10908 12.0675 4.0567 12.1968L3.90297 12.5762L3.80784 12.4848L3.85225 12.3752C3.78529 12.428 3.70479 12.4093 3.61075 12.3189C3.54952 12.2601 3.50881 12.1956 3.48862 12.1255C3.46844 12.0554 3.4703 11.9908 3.49422 11.9318C3.51471 11.8812 3.54549 11.8502 3.58653 11.8389C3.62539 11.8255 3.67125 11.8285 3.72409 11.848C3.77361 11.8683 3.82462 11.9036 3.8771 11.954C3.92302 11.9981 3.96344 12.0409 3.99834 12.0822C4.02585 11.9993 4.03222 11.9273 4.01746 11.8663C4.00269 11.8053 3.96798 11.7485 3.9133 11.696C3.88488 11.6687 3.85579 11.6505 3.82604 11.6414C3.7941 11.6303 3.76207 11.6268 3.72996 11.6311L3.71635 11.5185C3.79617 11.5015 3.87653 11.5318 3.95744 11.6095ZM3.65475 12.2441C3.71599 12.3029 3.77378 12.3252 3.82812 12.3111C3.88133 12.2997 3.92611 12.2529 3.96246 12.1707C3.9287 12.1266 3.89105 12.0845 3.8495 12.0446C3.78827 11.9858 3.73337 11.9526 3.68481 11.945C3.63957 11.9367 3.60613 11.9592 3.58449 12.0126C3.55261 12.0913 3.57603 12.1685 3.65475 12.2441ZM4.75319 11.5247L5.76099 9.03757L5.8594 9.13209L4.85159 11.6193L4.75319 11.5247ZM5.04841 11.8083L6.05622 9.32115L6.15462 9.41568L5.14682 11.9028L5.04841 11.8083ZM5.54045 12.281L6.54826 9.79379L6.74507 9.98284L5.73727 12.47L5.54045 12.281ZM4.76238 13.4252C4.72958 13.3937 4.70295 13.3544 4.68249 13.3074C4.66203 13.2605 4.6488 13.2106 4.64278 13.158L4.5724 13.2192L4.51663 13.1657L4.93855 12.1244L5.04023 12.2221L5.03682 12.2306C5.02903 12.2348 5.0229 12.2387 5.01844 12.2422C5.01283 12.2485 5.00662 12.2601 4.99978 12.277L4.85117 12.6437C4.8868 12.6233 4.92447 12.6165 4.9642 12.6234C5.00393 12.6304 5.0391 12.6485 5.06971 12.678C5.13969 12.7452 5.18293 12.8296 5.19943 12.9314C5.21479 13.0359 5.19855 13.1472 5.15072 13.2653C5.1177 13.3468 5.0783 13.4065 5.03251 13.4445C4.98673 13.4825 4.93956 13.4977 4.89099 13.4901C4.84462 13.4846 4.80175 13.463 4.76238 13.4252ZM4.79354 13.3145C4.83727 13.3566 4.88247 13.3687 4.92912 13.3511C4.97463 13.3362 5.01674 13.281 5.05546 13.1855C5.09304 13.0927 5.10782 13.0113 5.0998 12.9411C5.09073 12.866 5.06323 12.8064 5.0173 12.7623C4.97138 12.7182 4.92339 12.7092 4.87332 12.7353C4.82439 12.7585 4.78285 12.8123 4.74869 12.8967C4.67581 13.0765 4.69076 13.2158 4.79354 13.3145ZM5.83593 12.5648L6.84374 10.0776L6.94215 10.1721L5.93434 12.6593L5.83593 12.5648ZM6.03275 12.7538L7.04055 10.2667L7.43419 10.6448L6.42638 13.132L6.03275 12.7538ZM6.6232 13.321L7.631 10.8338L7.72941 10.9284L6.72161 13.4155L6.6232 13.321ZM5.82545 14.4463C5.73141 14.356 5.66806 14.2424 5.63539 14.1056L5.7273 14.0475L5.74069 14.0369L5.74711 14.0548C5.74597 14.0576 5.74427 14.0619 5.74199 14.0675C5.74076 14.078 5.7401 14.0871 5.74001 14.0949C5.74097 14.1075 5.74192 14.1201 5.74288 14.1327C5.75345 14.1741 5.76792 14.2134 5.78628 14.2506C5.80578 14.2849 5.83303 14.3189 5.86802 14.3525C5.91175 14.3945 5.95073 14.4183 5.98494 14.4238C6.01697 14.4273 6.04038 14.4107 6.05519 14.3742C6.06771 14.3433 6.06812 14.3085 6.05641 14.2699C6.0447 14.2314 6.0155 14.176 5.9688 14.1038C5.85047 13.916 5.81067 13.7743 5.84939 13.6787C5.87217 13.6225 5.9084 13.5968 5.95811 13.6016C6.00676 13.6015 6.06389 13.6329 6.1295 13.6959C6.17979 13.7443 6.21845 13.7951 6.24547 13.8483C6.27363 13.8988 6.29395 13.9574 6.30644 14.024L6.22321 14.0495L6.21152 14.0558L6.20838 14.0411C6.21293 14.0299 6.21416 14.0193 6.21206 14.0095C6.21329 13.999 6.21124 13.9853 6.20591 13.9685C6.1942 13.9299 6.17912 13.8959 6.16067 13.8664C6.14117 13.8321 6.12048 13.8044 6.09861 13.7834C6.06363 13.7498 6.03069 13.7299 5.9998 13.7236C5.97224 13.7167 5.95276 13.7272 5.94137 13.7554C5.92999 13.7835 5.93233 13.8189 5.94842 13.8617C5.96118 13.9052 5.99252 13.9665 6.04246 14.0457C6.10105 14.141 6.1383 14.2178 6.1542 14.276C6.17229 14.3363 6.17052 14.3932 6.14888 14.4466C6.12269 14.5112 6.08137 14.5457 6.02492 14.5501C5.96848 14.5544 5.90199 14.5198 5.82545 14.4463Z" fill="white"/>
</g>
<path d="M1.61719 4.55541L1.73992 4.49283L8.30675 10.8446L8.18668 10.9121L1.61719 4.55541Z" fill="white"/>
<path d="M2.57668 4.03574L2.69942 3.97076L9.26624 10.3249L9.14618 10.3924L2.57668 4.03574Z" fill="white"/>
<path d="M2.93767 3.83839L3.06041 3.77582L9.62723 10.13L9.50717 10.1951L2.93767 3.83839Z" fill="white"/>
<path d="M3.29699 3.64571L3.41973 3.57833L9.98655 9.93247L9.86649 10.0024L3.29699 3.64571Z" fill="white"/>
<path d="M4.25241 3.12348L4.37515 3.06091L10.942 9.41505L10.8219 9.48018L4.25241 3.12348Z" fill="white"/>
<path d="M4.6148 2.92854L4.73754 2.86597L11.3044 9.22011L11.1843 9.28525L4.6148 2.92854Z" fill="white"/>
<path d="M4.6148 2.92854L4.73754 2.86597L11.3044 9.22011L11.1843 9.28525L4.6148 2.92854Z" fill="white"/>
<path d="M5.57263 2.40872L5.69536 2.34615L12.2646 8.69788L12.1421 8.76542L5.57263 2.40872Z" fill="white"/>
<path d="M6.1815 2.08624L6.29701 2.01645L12.8638 8.37059L12.751 8.44294L6.1815 2.08624Z" fill="white"/>
<path d="M6.89485 1.69637L7.01759 1.62658L13.5844 7.98072L13.4644 8.05307L6.89485 1.69637Z" fill="white"/>
<path d="M7.85889 1.17414L7.97441 1.10675L14.5412 7.46089L14.4284 7.53084L7.85889 1.17414Z" fill="white"/>
<path d="M7.24622 1.50625L7.73235 1.24393L14.2992 7.59807L13.8157 7.86295L7.24622 1.50625Z" fill="white"/>
<path d="M7.85889 1.17414L7.97441 1.10675L14.5412 7.46089L14.4284 7.53084L7.85889 1.17414Z" fill="white"/>
<path d="M3.65798 3.44596L4.1393 3.18846L10.7061 9.5426L10.2275 9.80266L3.65798 3.44596Z" fill="white"/>
<path d="M1.97818 4.36047L2.48116 4.09334L9.02392 10.4547L8.54768 10.7172L1.97818 4.36047Z" fill="white"/>
<path d="M4.84925 2.80099L5.09879 2.67361L11.6632 9.02293L11.4187 9.16011L4.84925 2.80099Z" fill="white"/>
<path d="M6.41594 1.95147L6.65586 1.82167L13.2227 8.17581L12.9854 8.30817L6.41594 1.95147Z" fill="white"/>
<path d="M8.21507 0.979206L8.33781 0.916634L14.9046 7.27078L14.7846 7.33591L8.21507 0.979206Z" fill="white"/>
<path d="M8.21507 0.979206L8.33781 0.916634L14.9046 7.27078L14.7846 7.33591L8.21507 0.979206Z" fill="white"/>
<path d="M8.74928 0.732498L9.20936 0.514393L15.7342 6.82697L15.274 7.09027L8.74928 0.732498Z" fill="white"/>
<path d="M8.74928 0.732498L9.20936 0.514393L15.7342 6.82697L15.274 7.09027L8.74928 0.732498Z" fill="white"/>
<path d="M9.34344 0.460761L9.47752 0.380313L15.9856 6.70069L15.8655 6.76582L9.34344 0.460761Z" fill="white"/>
<path d="M9.34344 0.460761L9.47752 0.380313L15.9856 6.70069L15.8655 6.76582L9.34344 0.460761Z" fill="white"/>
</g>
<defs>
<clipPath id="clip0_312_10855">
<rect width="16" height="16" fill="white"/>
</clipPath>
<clipPath id="clip1_312_10855">
<rect width="9.02474" height="5.4645" fill="white" transform="matrix(0.721182 0.692746 -0.375542 0.926805 1.67993 4.26044)"/>
</clipPath>
</defs>
</svg>
